<?xml version="1.0" encoding="iso-8859-1"?>
<!-- Generator: Adobe Illustrator 19.0.0, SVG Export Plug-In . SVG Version: 6.00 Build 0)  -->
<svg version="1.1" id="Layer_1" xmlns="http://www.w3.org/2000/svg" xmlns:xlink="http://www.w3.org/1999/xlink" x="0px" y="0px"
	 viewBox="0 0 506.239 506.239" style="enable-background:new 0 0 506.239 506.239;" xml:space="preserve">
<g>
	<g>
		<path style="fill:#445793;" d="M75.765,23.777l49.231,98.462c13.125-9.767,20.185-26.319,37.09-28.574L119.374,0.088"/>
		<path style="fill:#445793;" d="M203.765,92.701h98.462V81.013c0-15.271-12.426-27.697-27.697-27.697h-43.067
			c-15.271,0-27.697,12.426-27.697,27.697V92.701z M312.073,112.393H193.919c-5.445,0-9.846-4.401-9.846-9.846V81.013
			c0-26.132,21.258-47.39,47.39-47.39h43.067c26.132,0,47.39,21.258,47.39,47.39v21.534
			C321.919,107.992,317.518,112.393,312.073,112.393L312.073,112.393z"/>
	</g>
	<path style="fill:#6581C9;" d="M371.067,506.239h-231.02c-49.516,0-88.281-42.634-83.584-91.924l22.134-232.487
		c4.815-50.53,47.262-89.127,98.018-89.127h156.298c50.521,0,92.839,38.233,97.959,88.487l19.042,236.436
		C453.391,466.224,419.796,506.239,371.067,506.239"/>
	<g>
		<path style="fill:#445793;" d="M390.832,447.162c-5.022,0-9.305-3.82-9.787-8.911l-19.692-206.769
			c-0.049-38.932-30.976-69.858-68.972-69.858h-78.769c-37.996,0-68.923,30.927-68.923,68.923l-19.742,207.705
			c-0.522,5.406-5.248,9.521-10.732,8.862c-5.415-0.512-9.383-5.317-8.862-10.732l19.692-206.769
			c-0.049-47.931,39.7-87.68,88.566-87.68h78.769c48.866,0,88.615,39.749,88.615,88.615l19.643,205.834
			c0.522,5.415-3.446,10.22-8.862,10.732C391.453,447.152,391.138,447.162,390.832,447.162"/>
		<path style="fill:#445793;" d="M321.919,358.547H184.073c-5.445,0-9.846-4.401-9.846-9.846c0-5.445,4.401-9.846,9.846-9.846
			h137.846c5.445,0,9.846,4.401,9.846,9.846C331.765,354.146,327.364,358.547,321.919,358.547"/>
		<path style="fill:#445793;" d="M292.381,407.777c-5.445,0-9.846-4.401-9.846-9.846v-49.231c0-5.445,4.401-9.846,9.846-9.846
			s9.846,4.401,9.846,9.846v49.231C302.227,403.376,297.826,407.777,292.381,407.777"/>
		<path style="fill:#445793;" d="M385.135,0l-41.019,93.617c16.916,2.186,32.561,8.606,45.726,18.314l40.389-92.17"/>
		<path style="fill:#445793;" d="M252.996,191.162l19.407,39.385h39.67l-29.538,39.739l9.285,39.03l-38.823-19.692l-38.823,19.692
			l9.285-39.03l-29.538-39.739h39.67L252.996,191.162z"/>
		<path style="fill:#445793;" d="M312.073,427.47c0,16.315-8.812,29.538-19.692,29.538c-10.88,0-19.692-13.223-19.692-29.538
			c0-16.315,8.812-29.538,19.692-29.538C303.261,397.931,312.073,411.155,312.073,427.47"/>
	</g>
</g>
<g>
</g>
<g>
</g>
<g>
</g>
<g>
</g>
<g>
</g>
<g>
</g>
<g>
</g>
<g>
</g>
<g>
</g>
<g>
</g>
<g>
</g>
<g>
</g>
<g>
</g>
<g>
</g>
<g>
</g>
</svg>
