<svg width="39" height="38" viewBox="0 0 39 38" fill="none" xmlns="http://www.w3.org/2000/svg">
<path d="M17.3111 0.166005C8.32285 1.14298 1.0932 8.37263 0.116225 17.1654C-0.860755 26.349 4.41493 34.5557 12.4262 37.682C13.0124 37.8774 13.5985 37.4866 13.5985 36.705V33.5787C13.5985 33.5787 12.817 33.7741 11.84 33.7741C9.10443 33.7741 7.93206 31.4293 7.73666 30.0616C7.54127 29.28 7.15048 28.6938 6.56429 28.1076C5.9781 27.9122 5.7827 27.9122 5.7827 27.7168C5.7827 27.326 6.36889 27.326 6.56429 27.326C7.73666 27.326 8.71364 28.6938 9.10443 29.28C10.0814 30.8431 11.2538 31.2339 11.84 31.2339C12.6216 31.2339 13.2077 31.0385 13.5985 30.8431C13.7939 29.4754 14.3801 28.1076 15.5525 27.326C11.0584 26.349 7.73666 23.8089 7.73666 19.5102C7.73666 17.3608 8.71364 15.2115 10.0814 13.6483C9.88602 13.2575 9.69062 12.2805 9.69062 10.9128C9.69062 10.1312 9.69062 8.95882 10.2768 7.78644C10.2768 7.78644 13.0124 7.78644 15.7479 10.3266C16.7249 9.9358 18.0926 9.7404 19.4604 9.7404C20.8282 9.7404 22.196 9.9358 23.3683 10.3266C25.9085 7.78644 28.8394 7.78644 28.8394 7.78644C29.2302 8.95882 29.2302 10.1312 29.2302 10.9128C29.2302 12.4759 29.0348 13.2575 28.8394 13.6483C30.2072 15.2115 31.1842 17.1654 31.1842 19.5102C31.1842 23.8089 27.8624 26.349 23.3683 27.326C24.5407 28.303 25.3223 30.0616 25.3223 31.8201V36.9004C25.3223 37.4866 25.9085 38.0728 26.6901 37.8774C33.9197 34.9465 39 27.9122 39 19.7056C39 7.98184 29.0348 -1.20177 17.3111 0.166005Z" fill="#ECEEF9"/>
</svg>
