<svg width="199" height="41" viewBox="0 0 199 41" fill="none" xmlns="http://www.w3.org/2000/svg">
<path d="M0.76 0.639472H8.74V39.4595H0.76V0.639472ZM18.0531 9.63947H25.8531V39.4595H18.0531V9.63947ZM39.7131 8.97947C41.5531 8.97947 43.2531 9.21947 44.8131 9.69947C46.3731 10.1795 47.7331 10.9195 48.8931 11.9195C50.0531 12.9195 50.9531 14.1995 51.5931 15.7595C52.2331 17.2795 52.5531 19.0995 52.5531 21.2195V39.4595H44.7531V22.5995C44.7531 20.0795 44.1331 18.2395 42.8931 17.0795C41.6931 15.8795 39.7131 15.2795 36.9531 15.2795C34.8731 15.2795 32.9931 15.6795 31.3131 16.4795C29.6331 17.2795 28.2731 18.2995 27.2331 19.5395C26.1931 20.7395 25.5931 21.9995 25.4331 23.3195L25.3731 20.2595C25.5731 18.8595 26.0331 17.4995 26.7531 16.1795C27.4731 14.8595 28.4331 13.6595 29.6331 12.5795C30.8731 11.4595 32.3331 10.5795 34.0131 9.93947C35.6931 9.29947 37.5931 8.97947 39.7131 8.97947ZM75.5088 34.3595H72.6888L83.6088 9.63947H92.1288L77.7888 39.4595H70.4088L56.3688 9.63947H64.9488L75.5088 34.3595ZM122.518 29.5595H130.078C129.758 31.5995 128.898 33.4195 127.498 35.0195C126.138 36.6195 124.278 37.8795 121.918 38.7995C119.558 39.7195 116.678 40.1795 113.278 40.1795C109.478 40.1795 106.118 39.5795 103.198 38.3795C100.278 37.1395 97.9983 35.3595 96.3583 33.0395C94.7183 30.7195 93.8983 27.9195 93.8983 24.6395C93.8983 21.3595 94.6983 18.5595 96.2983 16.2395C97.8983 13.8795 100.118 12.0795 102.958 10.8395C105.838 9.59947 109.198 8.97947 113.038 8.97947C116.958 8.97947 120.218 9.59947 122.818 10.8395C125.418 12.0795 127.338 13.9595 128.578 16.4795C129.858 18.9595 130.398 22.1395 130.198 26.0195H101.758C101.958 27.5395 102.518 28.9195 103.438 30.1595C104.398 31.3995 105.678 32.3795 107.278 33.0995C108.918 33.8195 110.858 34.1795 113.098 34.1795C115.578 34.1795 117.638 33.7595 119.278 32.9195C120.958 32.0395 122.038 30.9195 122.518 29.5595ZM112.678 14.9195C109.798 14.9195 107.458 15.5595 105.658 16.8395C103.858 18.0795 102.698 19.6195 102.178 21.4595H122.458C122.258 19.4595 121.298 17.8795 119.578 16.7195C117.898 15.5195 115.598 14.9195 112.678 14.9195ZM136.002 9.63947H143.802V39.4595H136.002V9.63947ZM157.662 8.97947C159.502 8.97947 161.202 9.21947 162.762 9.69947C164.322 10.1795 165.682 10.9195 166.842 11.9195C168.002 12.9195 168.902 14.1995 169.542 15.7595C170.182 17.2795 170.502 19.0995 170.502 21.2195V39.4595H162.702V22.5995C162.702 20.0795 162.082 18.2395 160.842 17.0795C159.642 15.8795 157.662 15.2795 154.902 15.2795C152.822 15.2795 150.942 15.6795 149.262 16.4795C147.582 17.2795 146.222 18.2995 145.182 19.5395C144.142 20.7395 143.542 21.9995 143.382 23.3195L143.322 20.2595C143.522 18.8595 143.982 17.4995 144.702 16.1795C145.422 14.8595 146.382 13.6595 147.582 12.5795C148.822 11.4595 150.282 10.5795 151.962 9.93947C153.642 9.29947 155.542 8.97947 157.662 8.97947ZM175.504 9.63947H198.664V15.6995H175.504V9.63947ZM183.184 1.47947H190.984V39.4595H183.184V1.47947Z" fill="#ECEEF9"/>
</svg>
